# xmcd
#
# Track frame offsets:
#	150
#	17299
#	33772
#	54947
#	70417
#	84907
#	93461
#	115484
#	137417
#	150726
#	180945
#	195631
#
# Disc length: 2978 seconds
#
# Revision: 1
# Processed by: cddbd v1.5.1PL0 Copyright (c) Steve Scherf et al.
# Submitted via: audiograbber 1.83.01
#
DISCID=880ba00c
DTITLE=Drøbak Blues Band - Move On Down The Road
DYEAR=1900
DGENRE=
TTITLE0=Love You Too Much
TTITLE1=Jumpin' Jack Flash
TTITLE2=Sensitive Kind
TTITLE3=Dust My Broom
TTITLE4=Brakeman
TTITLE5=Hippy Hippy Shake
TTITLE6=Broken Heart
TTITLE7=The Sky Is Crying
TTITLE8=Before You Accuse Me
TTITLE9=Need You Tonight
TTITLE10=Move On Down The Road
TTITLE11=Fool For Your Stockings
EXTD=
EXTT0=
EXTT1=
EXTT2=
EXTT3=
EXTT4=
EXTT5=
EXTT6=
EXTT7=
EXTT8=
EXTT9=
EXTT10=
EXTT11=
PLAYORDER=
